{
	"patcher" : 	{
		"fileversion" : 1,
		"appversion" : 		{
			"major" : 6,
			"minor" : 1,
			"revision" : 7,
			"architecture" : "x64"
		}
,
		"rect" : [ 4.0, 68.0, 1436.0, 786.0 ],
		"bglocked" : 0,
		"openinpresentation" : 0,
		"default_fontsize" : 12.0,
		"default_fontface" : 0,
		"default_fontname" : "Arial",
		"gridonopen" : 0,
		"gridsize" : [ 15.0, 15.0 ],
		"gridsnaponopen" : 0,
		"statusbarvisible" : 2,
		"toolbarvisible" : 1,
		"boxanimatetime" : 200,
		"imprint" : 0,
		"enablehscroll" : 1,
		"enablevscroll" : 1,
		"devicewidth" : 0.0,
		"description" : "",
		"digest" : "",
		"tags" : "",
		"boxes" : [ 			{
				"box" : 				{
					"fontname" : "Arial",
					"fontsize" : 12.0,
					"frgb" : 0.0,
					"id" : "obj-40",
					"linecount" : 2,
					"maxclass" : "comment",
					"numinlets" : 1,
					"numoutlets" : 0,
					"patching_rect" : [ 322.0, 189.0, 150.0, 33.0 ],
					"text" : "allows user to select one particular set of LSF"
				}

			}
, 			{
				"box" : 				{
					"border" : 3.0,
					"id" : "obj-15",
					"maxclass" : "live.line",
					"numinlets" : 1,
					"numoutlets" : 0,
					"patching_rect" : [ 524.0, 375.5, 914.0, 5.0 ],
					"presentation" : 1,
					"presentation_rect" : [ 524.0, 375.5, 914.0, 5.0 ]
				}

			}
, 			{
				"box" : 				{
					"id" : "obj-14",
					"maxclass" : "bpatcher",
					"name" : "fftplot~.maxpat",
					"numinlets" : 0,
					"numoutlets" : 0,
					"patching_rect" : [ 541.0, 454.25, 707.0, 427.0 ],
					"presentation" : 1,
					"presentation_rect" : [ 541.0, 454.25, 707.0, 427.0 ]
				}

			}
, 			{
				"box" : 				{
					"fontname" : "Arial",
					"fontsize" : 12.0,
					"id" : "obj-32",
					"maxclass" : "newobj",
					"numinlets" : 0,
					"numoutlets" : 1,
					"outlettype" : [ "float" ],
					"patcher" : 					{
						"fileversion" : 1,
						"appversion" : 						{
							"major" : 6,
							"minor" : 1,
							"revision" : 7,
							"architecture" : "x64"
						}
,
						"rect" : [ 0.0, 0.0, 640.0, 480.0 ],
						"bglocked" : 0,
						"openinpresentation" : 0,
						"default_fontsize" : 12.0,
						"default_fontface" : 0,
						"default_fontname" : "Arial",
						"gridonopen" : 0,
						"gridsize" : [ 15.0, 15.0 ],
						"gridsnaponopen" : 0,
						"statusbarvisible" : 2,
						"toolbarvisible" : 1,
						"boxanimatetime" : 200,
						"imprint" : 0,
						"enablehscroll" : 1,
						"enablevscroll" : 1,
						"devicewidth" : 0.0,
						"description" : "",
						"digest" : "",
						"tags" : "",
						"boxes" : [ 							{
								"box" : 								{
									"fontname" : "Arial",
									"fontsize" : 12.0,
									"id" : "obj-27",
									"maxclass" : "newobj",
									"numinlets" : 1,
									"numoutlets" : 1,
									"outlettype" : [ "" ],
									"patching_rect" : [ 50.0, 100.0, 89.0, 20.0 ],
									"text" : "loadmess 440."
								}

							}
, 							{
								"box" : 								{
									"fontname" : "Arial",
									"fontsize" : 12.0,
									"id" : "obj-46",
									"maxclass" : "newobj",
									"numinlets" : 2,
									"numoutlets" : 1,
									"outlettype" : [ "float" ],
									"patching_rect" : [ 50.0, 169.5, 49.0, 20.0 ],
									"text" : "* 1000."
								}

							}
, 							{
								"box" : 								{
									"fontname" : "Arial",
									"fontsize" : 12.0,
									"id" : "obj-44",
									"maxclass" : "flonum",
									"numinlets" : 1,
									"numoutlets" : 2,
									"outlettype" : [ "float", "bang" ],
									"parameter_enable" : 0,
									"patching_rect" : [ 50.0, 130.0, 50.0, 20.0 ]
								}

							}
, 							{
								"box" : 								{
									"fontname" : "Arial",
									"fontsize" : 12.0,
									"id" : "obj-35",
									"maxclass" : "newobj",
									"numinlets" : 2,
									"numoutlets" : 1,
									"outlettype" : [ "float" ],
									"patching_rect" : [ 50.0, 149.5, 32.5, 20.0 ],
									"text" : "!/ 1."
								}

							}
, 							{
								"box" : 								{
									"comment" : "",
									"id" : "obj-30",
									"maxclass" : "outlet",
									"numinlets" : 1,
									"numoutlets" : 0,
									"patching_rect" : [ 50.0, 249.5, 25.0, 25.0 ]
								}

							}
 ],
						"lines" : [ 							{
								"patchline" : 								{
									"destination" : [ "obj-44", 0 ],
									"disabled" : 0,
									"hidden" : 0,
									"source" : [ "obj-27", 0 ]
								}

							}
, 							{
								"patchline" : 								{
									"destination" : [ "obj-46", 0 ],
									"disabled" : 0,
									"hidden" : 0,
									"source" : [ "obj-35", 0 ]
								}

							}
, 							{
								"patchline" : 								{
									"destination" : [ "obj-35", 0 ],
									"disabled" : 0,
									"hidden" : 0,
									"source" : [ "obj-44", 0 ]
								}

							}
, 							{
								"patchline" : 								{
									"destination" : [ "obj-30", 0 ],
									"disabled" : 0,
									"hidden" : 0,
									"source" : [ "obj-46", 0 ]
								}

							}
 ]
					}
,
					"patching_rect" : [ 541.0, 99.0, 92.0, 20.0 ],
					"presentation" : 1,
					"presentation_rect" : [ 541.0, 99.0, 92.0, 20.0 ],
					"saved_object_attributes" : 					{
						"default_fontface" : 0,
						"default_fontname" : "Arial",
						"default_fontsize" : 12.0,
						"description" : "",
						"digest" : "",
						"fontface" : 0,
						"fontname" : "Arial",
						"fontsize" : 12.0,
						"globalpatchername" : "",
						"tags" : ""
					}
,
					"text" : "p 440hzStartup"
				}

			}
, 			{
				"box" : 				{
					"fontname" : "Arial",
					"fontsize" : 12.0,
					"id" : "obj-25",
					"maxclass" : "newobj",
					"numinlets" : 1,
					"numoutlets" : 0,
					"patching_rect" : [ 39.0, 594.5, 76.0, 20.0 ],
					"presentation" : 1,
					"presentation_rect" : [ 39.0, 594.5, 76.0, 20.0 ],
					"text" : "send~ fftplot"
				}

			}
, 			{
				"box" : 				{
					"fontname" : "Arial",
					"fontsize" : 12.0,
					"id" : "obj-21",
					"maxclass" : "newobj",
					"numinlets" : 1,
					"numoutlets" : 1,
					"outlettype" : [ "signal" ],
					"patching_rect" : [ 541.0, 406.5, 89.0, 20.0 ],
					"presentation" : 1,
					"presentation_rect" : [ 541.0, 406.5, 89.0, 20.0 ],
					"text" : "receive~ fftplot"
				}

			}
, 			{
				"box" : 				{
					"fontname" : "Arial",
					"fontsize" : 12.0,
					"id" : "obj-18",
					"maxclass" : "newobj",
					"numinlets" : 3,
					"numoutlets" : 2,
					"outlettype" : [ "signal", "bang" ],
					"patching_rect" : [ 541.0, 128.5, 46.0, 20.0 ],
					"presentation" : 1,
					"presentation_rect" : [ 541.0, 128.5, 46.0, 20.0 ],
					"text" : "train~"
				}

			}
, 			{
				"box" : 				{
					"fontname" : "Arial",
					"fontsize" : 12.0,
					"id" : "obj-19",
					"maxclass" : "newobj",
					"numinlets" : 0,
					"numoutlets" : 1,
					"outlettype" : [ "" ],
					"patcher" : 					{
						"fileversion" : 1,
						"appversion" : 						{
							"major" : 6,
							"minor" : 1,
							"revision" : 7,
							"architecture" : "x64"
						}
,
						"rect" : [ 29.0, 69.0, 640.0, 480.0 ],
						"bglocked" : 0,
						"openinpresentation" : 0,
						"default_fontsize" : 12.0,
						"default_fontface" : 0,
						"default_fontname" : "Arial",
						"gridonopen" : 0,
						"gridsize" : [ 15.0, 15.0 ],
						"gridsnaponopen" : 0,
						"statusbarvisible" : 2,
						"toolbarvisible" : 1,
						"boxanimatetime" : 200,
						"imprint" : 0,
						"enablehscroll" : 1,
						"enablevscroll" : 1,
						"devicewidth" : 0.0,
						"description" : "",
						"digest" : "",
						"tags" : "",
						"boxes" : [ 							{
								"box" : 								{
									"fontname" : "Arial",
									"fontsize" : 12.0,
									"id" : "obj-1",
									"maxclass" : "newobj",
									"numinlets" : 1,
									"numoutlets" : 1,
									"outlettype" : [ "bang" ],
									"patching_rect" : [ 50.0, 65.0, 60.0, 20.0 ],
									"text" : "loadbang"
								}

							}
, 							{
								"box" : 								{
									"fontname" : "Arial",
									"fontsize" : 12.0,
									"id" : "obj-51",
									"linecount" : 50,
									"maxclass" : "message",
									"numinlets" : 2,
									"numoutlets" : 1,
									"outlettype" : [ "" ],
									"patching_rect" : [ 50.0, 100.0, 71.0, 675.0 ],
									"text" : "1 -2.065524 1.65051 -1.276552 1.034957 -0.354353 0.169229 -0.277498 0.366273 -0.099282 -0.148932 -0.152149 0.276537 -0.451512 0.760033 -0.691787 0.298743 0.073554 -0.170123 0.113458 0.085647 -0.270539 0.263103 0.034057 -0.340805 0.11843 0.02648 -0.025397 0.127571 -0.051596 0.018575 0.063401 -0.068179 -0.096025 0.166252 -0.077263 -0.085137 0.023669 -0.016484 0.063887 0.184028 -0.25171 0.188038 -0.191602 0.172497 -0.161975 0.108588 -0.143087 0.204483 -0.091765"
								}

							}
, 							{
								"box" : 								{
									"comment" : "",
									"id" : "obj-18",
									"maxclass" : "outlet",
									"numinlets" : 1,
									"numoutlets" : 0,
									"patching_rect" : [ 50.0, 835.0, 25.0, 25.0 ]
								}

							}
 ],
						"lines" : [ 							{
								"patchline" : 								{
									"destination" : [ "obj-51", 0 ],
									"disabled" : 0,
									"hidden" : 0,
									"source" : [ "obj-1", 0 ]
								}

							}
, 							{
								"patchline" : 								{
									"destination" : [ "obj-18", 0 ],
									"disabled" : 0,
									"hidden" : 0,
									"source" : [ "obj-51", 0 ]
								}

							}
 ]
					}
,
					"patching_rect" : [ 255.0, 455.0, 127.0, 20.0 ],
					"presentation" : 1,
					"presentation_rect" : [ 255.0, 455.0, 127.0, 20.0 ],
					"saved_object_attributes" : 					{
						"default_fontface" : 0,
						"default_fontname" : "Arial",
						"default_fontsize" : 12.0,
						"description" : "",
						"digest" : "",
						"fontface" : 0,
						"fontname" : "Arial",
						"fontsize" : 12.0,
						"globalpatchername" : "",
						"tags" : ""
					}
,
					"text" : "p startup-coef-sample"
				}

			}
, 			{
				"box" : 				{
					"fontname" : "Arial",
					"fontsize" : 12.0,
					"id" : "obj-31",
					"maxclass" : "newobj",
					"numinlets" : 1,
					"numoutlets" : 1,
					"outlettype" : [ "signal" ],
					"patcher" : 					{
						"fileversion" : 1,
						"appversion" : 						{
							"major" : 6,
							"minor" : 1,
							"revision" : 7,
							"architecture" : "x64"
						}
,
						"rect" : [ 54.0, 94.0, 640.0, 480.0 ],
						"bglocked" : 0,
						"openinpresentation" : 0,
						"default_fontsize" : 12.0,
						"default_fontface" : 0,
						"default_fontname" : "Arial",
						"gridonopen" : 0,
						"gridsize" : [ 15.0, 15.0 ],
						"gridsnaponopen" : 0,
						"statusbarvisible" : 2,
						"toolbarvisible" : 1,
						"boxanimatetime" : 200,
						"imprint" : 0,
						"enablehscroll" : 1,
						"enablevscroll" : 1,
						"devicewidth" : 0.0,
						"description" : "",
						"digest" : "",
						"tags" : "",
						"boxes" : [ 							{
								"box" : 								{
									"fontname" : "Arial",
									"fontsize" : 12.0,
									"id" : "obj-13",
									"maxclass" : "newobj",
									"numinlets" : 1,
									"numoutlets" : 2,
									"outlettype" : [ "signal", "bang" ],
									"patching_rect" : [ 249.0, 237.0, 92.0, 20.0 ],
									"text" : "play~ residual2"
								}

							}
, 							{
								"box" : 								{
									"fontname" : "Arial",
									"fontsize" : 12.0,
									"id" : "obj-12",
									"maxclass" : "message",
									"numinlets" : 2,
									"numoutlets" : 1,
									"outlettype" : [ "" ],
									"patching_rect" : [ 344.75, 296.0, 32.5, 18.0 ],
									"text" : "1"
								}

							}
, 							{
								"box" : 								{
									"fontname" : "Arial",
									"fontsize" : 12.0,
									"id" : "obj-10",
									"maxclass" : "message",
									"numinlets" : 2,
									"numoutlets" : 1,
									"outlettype" : [ "" ],
									"patching_rect" : [ 159.75, 296.0, 32.5, 18.0 ],
									"text" : "1"
								}

							}
, 							{
								"box" : 								{
									"fontname" : "Arial",
									"fontsize" : 12.0,
									"id" : "obj-3",
									"maxclass" : "newobj",
									"numinlets" : 1,
									"numoutlets" : 2,
									"outlettype" : [ "float", "bang" ],
									"patching_rect" : [ 77.5, 40.0, 135.0, 20.0 ],
									"text" : "buffer~ residual2 2.wav"
								}

							}
, 							{
								"box" : 								{
									"fontname" : "Arial",
									"fontsize" : 12.0,
									"id" : "obj-18",
									"maxclass" : "newobj",
									"numinlets" : 1,
									"numoutlets" : 2,
									"outlettype" : [ "signal", "bang" ],
									"patching_rect" : [ 50.0, 237.0, 102.0, 20.0 ],
									"text" : "play~ residual1 1"
								}

							}
, 							{
								"box" : 								{
									"fontname" : "Arial",
									"fontsize" : 12.0,
									"id" : "obj-14",
									"maxclass" : "newobj",
									"numinlets" : 1,
									"numoutlets" : 2,
									"outlettype" : [ "float", "bang" ],
									"patching_rect" : [ 218.0, 40.0, 135.0, 20.0 ],
									"text" : "buffer~ residual1 2.wav"
								}

							}
, 							{
								"box" : 								{
									"comment" : "",
									"id" : "obj-27",
									"maxclass" : "inlet",
									"numinlets" : 0,
									"numoutlets" : 1,
									"outlettype" : [ "int" ],
									"patching_rect" : [ 50.0, 40.0, 25.0, 25.0 ]
								}

							}
, 							{
								"box" : 								{
									"comment" : "",
									"id" : "obj-30",
									"maxclass" : "outlet",
									"numinlets" : 1,
									"numoutlets" : 0,
									"patching_rect" : [ 50.0, 315.0, 25.0, 25.0 ]
								}

							}
 ],
						"lines" : [ 							{
								"patchline" : 								{
									"destination" : [ "obj-18", 0 ],
									"disabled" : 0,
									"hidden" : 0,
									"source" : [ "obj-10", 0 ]
								}

							}
, 							{
								"patchline" : 								{
									"destination" : [ "obj-13", 0 ],
									"disabled" : 0,
									"hidden" : 0,
									"source" : [ "obj-12", 0 ]
								}

							}
, 							{
								"patchline" : 								{
									"destination" : [ "obj-10", 0 ],
									"disabled" : 0,
									"hidden" : 0,
									"source" : [ "obj-13", 1 ]
								}

							}
, 							{
								"patchline" : 								{
									"destination" : [ "obj-30", 0 ],
									"disabled" : 0,
									"hidden" : 0,
									"source" : [ "obj-13", 0 ]
								}

							}
, 							{
								"patchline" : 								{
									"destination" : [ "obj-12", 0 ],
									"disabled" : 0,
									"hidden" : 0,
									"source" : [ "obj-18", 1 ]
								}

							}
, 							{
								"patchline" : 								{
									"destination" : [ "obj-30", 0 ],
									"disabled" : 0,
									"hidden" : 0,
									"source" : [ "obj-18", 0 ]
								}

							}
, 							{
								"patchline" : 								{
									"destination" : [ "obj-18", 0 ],
									"disabled" : 0,
									"hidden" : 0,
									"source" : [ "obj-27", 0 ]
								}

							}
 ]
					}
,
					"patching_rect" : [ 9.0, 415.5, 89.0, 20.0 ],
					"presentation" : 1,
					"presentation_rect" : [ 9.0, 415.5, 89.0, 20.0 ],
					"saved_object_attributes" : 					{
						"default_fontface" : 0,
						"default_fontname" : "Arial",
						"default_fontsize" : 12.0,
						"description" : "",
						"digest" : "",
						"fontface" : 0,
						"fontname" : "Arial",
						"fontsize" : 12.0,
						"globalpatchername" : "",
						"tags" : ""
					}
,
					"text" : "p loop-residual"
				}

			}
, 			{
				"box" : 				{
					"id" : "obj-22",
					"maxclass" : "toggle",
					"numinlets" : 1,
					"numoutlets" : 1,
					"outlettype" : [ "int" ],
					"parameter_enable" : 0,
					"patching_rect" : [ 9.0, 356.5, 43.0, 43.0 ],
					"presentation" : 1,
					"presentation_rect" : [ 9.0, 356.5, 43.0, 43.0 ]
				}

			}
, 			{
				"box" : 				{
					"fontname" : "Arial",
					"fontsize" : 12.0,
					"id" : "obj-10",
					"maxclass" : "newobj",
					"numinlets" : 2,
					"numoutlets" : 1,
					"outlettype" : [ "signal" ],
					"patching_rect" : [ 9.0, 521.0, 52.0, 20.0 ],
					"presentation" : 1,
					"presentation_rect" : [ 9.0, 521.0, 52.0, 20.0 ],
					"text" : "allpole~"
				}

			}
, 			{
				"box" : 				{
					"fontname" : "Arial",
					"fontsize" : 12.0,
					"id" : "obj-11",
					"maxclass" : "newobj",
					"numinlets" : 1,
					"numoutlets" : 1,
					"outlettype" : [ "" ],
					"patching_rect" : [ 322.0, 135.0, 79.0, 20.0 ],
					"presentation" : 1,
					"presentation_rect" : [ 373.0, 135.0, 79.0, 20.0 ],
					"text" : "loadmess 49"
				}

			}
, 			{
				"box" : 				{
					"color" : [ 0.501961, 0.0, 1.0, 1.0 ],
					"fontname" : "Arial",
					"fontsize" : 14.0,
					"id" : "obj-8",
					"maxclass" : "newobj",
					"numinlets" : 1,
					"numoutlets" : 0,
					"patching_rect" : [ 322.0, 167.0, 88.0, 22.0 ],
					"presentation" : 1,
					"presentation_rect" : [ 373.0, 167.0, 88.0, 22.0 ],
					"text" : "s select-LSF"
				}

			}
, 			{
				"box" : 				{
					"border" : 3.0,
					"id" : "obj-7",
					"maxclass" : "live.line",
					"numinlets" : 1,
					"numoutlets" : 0,
					"patching_rect" : [ 524.0, -3.0, 5.0, 382.0 ],
					"presentation" : 1,
					"presentation_rect" : [ 524.0, -3.0, 5.0, 382.0 ]
				}

			}
, 			{
				"box" : 				{
					"fontface" : 1,
					"fontname" : "Arial",
					"fontsize" : 20.0,
					"frgb" : 0.0,
					"id" : "obj-4",
					"maxclass" : "comment",
					"numinlets" : 1,
					"numoutlets" : 0,
					"patching_rect" : [ 541.0, 262.0, 244.0, 29.0 ],
					"presentation" : 1,
					"presentation_rect" : [ 541.0, 262.0, 244.0, 29.0 ],
					"text" : "NOTEBOOK"
				}

			}
, 			{
				"box" : 				{
					"fontname" : "Arial",
					"fontsize" : 12.0,
					"frgb" : 0.0,
					"id" : "obj-6",
					"linecount" : 5,
					"maxclass" : "comment",
					"numinlets" : 1,
					"numoutlets" : 0,
					"patching_rect" : [ 541.0, 291.0, 156.0, 74.0 ],
					"presentation" : 1,
					"presentation_linecount" : 5,
					"presentation_rect" : [ 541.0, 291.0, 156.0, 74.0 ],
					"text" : "- Importer le module de correction de trajectoire/de pitch du cantor, et envoyer cela sur un send en mode CD-f0"
				}

			}
, 			{
				"box" : 				{
					"color" : [ 1.0, 0.501961, 0.0, 1.0 ],
					"fontface" : 1,
					"fontname" : "Arial",
					"fontsize" : 20.0,
					"id" : "obj-3",
					"maxclass" : "newobj",
					"numinlets" : 0,
					"numoutlets" : 1,
					"outlettype" : [ "signal" ],
					"patching_rect" : [ 9.0, 321.5, 147.0, 29.0 ],
					"presentation" : 1,
					"presentation_rect" : [ 9.0, 321.5, 147.0, 29.0 ],
					"text" : "residualInterp"
				}

			}
, 			{
				"box" : 				{
					"fontname" : "Arial",
					"fontsize" : 12.0,
					"id" : "obj-16",
					"maxclass" : "newobj",
					"numinlets" : 0,
					"numoutlets" : 1,
					"outlettype" : [ "signal" ],
					"patcher" : 					{
						"fileversion" : 1,
						"appversion" : 						{
							"major" : 6,
							"minor" : 1,
							"revision" : 7,
							"architecture" : "x64"
						}
,
						"rect" : [ 29.0, 69.0, 640.0, 480.0 ],
						"bglocked" : 0,
						"openinpresentation" : 0,
						"default_fontsize" : 12.0,
						"default_fontface" : 0,
						"default_fontname" : "Arial",
						"gridonopen" : 0,
						"gridsize" : [ 15.0, 15.0 ],
						"gridsnaponopen" : 0,
						"statusbarvisible" : 2,
						"toolbarvisible" : 1,
						"boxanimatetime" : 200,
						"imprint" : 0,
						"enablehscroll" : 1,
						"enablevscroll" : 1,
						"devicewidth" : 0.0,
						"description" : "",
						"digest" : "",
						"tags" : "",
						"boxes" : [ 							{
								"box" : 								{
									"id" : "obj-31",
									"maxclass" : "scope~",
									"numinlets" : 2,
									"numoutlets" : 0,
									"patching_rect" : [ 84.699951, 518.5, 130.0, 130.0 ]
								}

							}
, 							{
								"box" : 								{
									"bgcolor" : [ 0.75, 0.75, 0.75, 1.0 ],
									"fontname" : "Arial",
									"fontsize" : 16.0,
									"frgb" : 0.0,
									"id" : "obj-42",
									"linecount" : 6,
									"maxclass" : "comment",
									"numinlets" : 1,
									"numoutlets" : 0,
									"patching_rect" : [ 64.699951, 100.0, 229.0, 114.0 ],
									"text" : "FAIRE UN SELECTEUR DE PERIODE\n- trouver comment sortir le max et le min (channels?)\n- Paramétrer un [float]\n- [combine set name.selector]",
									"textcolor" : [ 0.098039, 0.098039, 0.098039, 1.0 ]
								}

							}
, 							{
								"box" : 								{
									"fontname" : "Arial",
									"fontsize" : 12.0,
									"frgb" : 0.0,
									"id" : "obj-40",
									"linecount" : 2,
									"maxclass" : "comment",
									"numinlets" : 1,
									"numoutlets" : 0,
									"patching_rect" : [ 165.699951, 272.0, 225.0, 33.0 ],
									"text" : "Permet de sélectionner un sample particulier"
								}

							}
, 							{
								"box" : 								{
									"fontname" : "Arial",
									"fontsize" : 12.0,
									"id" : "obj-32",
									"maxclass" : "message",
									"numinlets" : 2,
									"numoutlets" : 1,
									"outlettype" : [ "" ],
									"patching_rect" : [ 102.199951, 382.5, 43.0, 18.0 ],
									"text" : "set $1"
								}

							}
, 							{
								"box" : 								{
									"bubble" : 1,
									"fontname" : "Arial",
									"fontsize" : 13.0,
									"frgb" : 0.0,
									"id" : "obj-17",
									"maxclass" : "comment",
									"numinlets" : 1,
									"numoutlets" : 0,
									"patching_rect" : [ 84.699951, 417.204956, 116.0, 25.0 ],
									"text" : "Start playback."
								}

							}
, 							{
								"box" : 								{
									"id" : "obj-33",
									"maxclass" : "toggle",
									"numinlets" : 1,
									"numoutlets" : 1,
									"outlettype" : [ "int" ],
									"parameter_enable" : 0,
									"patching_rect" : [ 64.699951, 420.204956, 20.0, 20.0 ]
								}

							}
, 							{
								"box" : 								{
									"fontname" : "Arial",
									"fontsize" : 13.0,
									"id" : "obj-34",
									"maxclass" : "newobj",
									"numinlets" : 1,
									"numoutlets" : 1,
									"outlettype" : [ "signal" ],
									"patching_rect" : [ 64.699951, 446.204956, 33.0, 21.0 ],
									"text" : "sig~"
								}

							}
, 							{
								"box" : 								{
									"fontname" : "Arial",
									"fontsize" : 13.0,
									"id" : "obj-7",
									"maxclass" : "newobj",
									"numinlets" : 3,
									"numoutlets" : 2,
									"outlettype" : [ "signal", "signal" ],
									"patching_rect" : [ 64.699951, 481.5, 177.0, 21.0 ],
									"text" : "groove~ residuals.1 @loop 1"
								}

							}
, 							{
								"box" : 								{
									"fontname" : "Arial",
									"fontsize" : 13.0,
									"id" : "obj-19",
									"items" : [ "residuals.1", ",", "residuals.2", ",", "residuals.3", ",", "residuals.4", ",", "residuals.5", ",", "residuals.6", ",", "residuals.7", ",", "residuals.8", ",", "residuals.9", ",", "residuals.1", ",", "residuals.2", ",", "residuals.3", ",", "residuals.4", ",", "residuals.5", ",", "residuals.6", ",", "residuals.7", ",", "residuals.8", ",", "residuals.9" ],
									"maxclass" : "umenu",
									"numinlets" : 1,
									"numoutlets" : 3,
									"outlettype" : [ "int", "", "" ],
									"parameter_enable" : 0,
									"patching_rect" : [ 64.699951, 355.5, 94.0, 21.0 ]
								}

							}
, 							{
								"box" : 								{
									"fontname" : "Arial",
									"fontsize" : 13.0,
									"id" : "obj-16",
									"maxclass" : "newobj",
									"numinlets" : 1,
									"numoutlets" : 1,
									"outlettype" : [ "" ],
									"patching_rect" : [ 64.699951, 330.0, 108.0, 21.0 ],
									"text" : "prepend append"
								}

							}
, 							{
								"box" : 								{
									"fontname" : "Arial",
									"fontsize" : 13.0,
									"id" : "obj-10",
									"maxclass" : "newobj",
									"numinlets" : 2,
									"numoutlets" : 2,
									"outlettype" : [ "", "" ],
									"patching_rect" : [ 64.699951, 300.0, 79.0, 21.0 ],
									"text" : "route done"
								}

							}
, 							{
								"box" : 								{
									"fontname" : "Arial",
									"fontsize" : 13.0,
									"id" : "obj-3",
									"maxclass" : "newobj",
									"numinlets" : 2,
									"numoutlets" : 2,
									"outlettype" : [ "", "" ],
									"patching_rect" : [ 64.699951, 272.0, 93.0, 21.0 ],
									"text" : "route bufferlist"
								}

							}
, 							{
								"box" : 								{
									"fontname" : "Arial",
									"fontsize" : 12.0,
									"id" : "obj-4",
									"maxclass" : "message",
									"numinlets" : 2,
									"numoutlets" : 1,
									"outlettype" : [ "" ],
									"patching_rect" : [ 139.699951, 217.204956, 72.0, 18.0 ],
									"text" : "getbufferlist"
								}

							}
, 							{
								"box" : 								{
									"fontname" : "Arial",
									"fontsize" : 12.0,
									"id" : "obj-11",
									"maxclass" : "message",
									"numinlets" : 2,
									"numoutlets" : 1,
									"outlettype" : [ "" ],
									"patching_rect" : [ 64.699951, 217.204956, 65.0, 18.0 ],
									"text" : "readfolder"
								}

							}
, 							{
								"box" : 								{
									"color" : [ 1.0, 1.0, 0.0, 1.0 ],
									"fontface" : 1,
									"fontname" : "Arial",
									"fontsize" : 16.0,
									"id" : "obj-8",
									"maxclass" : "newobj",
									"numinlets" : 1,
									"numoutlets" : 2,
									"outlettype" : [ "", "bang" ],
									"patching_rect" : [ 64.699951, 244.0, 175.0, 24.0 ],
									"saved_object_attributes" : 									{
										"embed" : 0
									}
,
									"text" : "polybuffer~ residuals"
								}

							}
, 							{
								"box" : 								{
									"comment" : "",
									"id" : "obj-15",
									"maxclass" : "outlet",
									"numinlets" : 1,
									"numoutlets" : 0,
									"patching_rect" : [ 64.699951, 708.5, 25.0, 25.0 ]
								}

							}
 ],
						"lines" : [ 							{
								"patchline" : 								{
									"destination" : [ "obj-16", 0 ],
									"disabled" : 0,
									"hidden" : 0,
									"source" : [ "obj-10", 1 ]
								}

							}
, 							{
								"patchline" : 								{
									"destination" : [ "obj-8", 0 ],
									"disabled" : 0,
									"hidden" : 0,
									"source" : [ "obj-11", 0 ]
								}

							}
, 							{
								"patchline" : 								{
									"destination" : [ "obj-19", 0 ],
									"disabled" : 0,
									"hidden" : 0,
									"source" : [ "obj-16", 0 ]
								}

							}
, 							{
								"patchline" : 								{
									"destination" : [ "obj-32", 0 ],
									"disabled" : 0,
									"hidden" : 0,
									"source" : [ "obj-19", 1 ]
								}

							}
, 							{
								"patchline" : 								{
									"destination" : [ "obj-10", 0 ],
									"disabled" : 0,
									"hidden" : 0,
									"source" : [ "obj-3", 0 ]
								}

							}
, 							{
								"patchline" : 								{
									"color" : [ 0.501961, 0.0, 1.0, 1.0 ],
									"destination" : [ "obj-7", 0 ],
									"disabled" : 0,
									"hidden" : 0,
									"midpoints" : [ 111.699951, 400.0, 51.5, 400.0, 51.5, 478.0, 74.199951, 478.0 ],
									"source" : [ "obj-32", 0 ]
								}

							}
, 							{
								"patchline" : 								{
									"destination" : [ "obj-34", 0 ],
									"disabled" : 0,
									"hidden" : 0,
									"source" : [ "obj-33", 0 ]
								}

							}
, 							{
								"patchline" : 								{
									"destination" : [ "obj-7", 0 ],
									"disabled" : 0,
									"hidden" : 0,
									"midpoints" : [ 74.199951, 469.0, 74.199951, 469.0 ],
									"source" : [ "obj-34", 0 ]
								}

							}
, 							{
								"patchline" : 								{
									"destination" : [ "obj-8", 0 ],
									"disabled" : 0,
									"hidden" : 0,
									"source" : [ "obj-4", 0 ]
								}

							}
, 							{
								"patchline" : 								{
									"destination" : [ "obj-15", 0 ],
									"disabled" : 0,
									"hidden" : 0,
									"source" : [ "obj-7", 0 ]
								}

							}
, 							{
								"patchline" : 								{
									"destination" : [ "obj-31", 0 ],
									"disabled" : 0,
									"hidden" : 0,
									"source" : [ "obj-7", 0 ]
								}

							}
, 							{
								"patchline" : 								{
									"destination" : [ "obj-3", 0 ],
									"disabled" : 0,
									"hidden" : 0,
									"source" : [ "obj-8", 0 ]
								}

							}
 ]
					}
,
					"patching_rect" : [ 651.5, 66.0, 98.0, 20.0 ],
					"presentation" : 1,
					"presentation_rect" : [ 651.5, 66.0, 98.0, 20.0 ],
					"saved_object_attributes" : 					{
						"default_fontface" : 0,
						"default_fontname" : "Arial",
						"default_fontsize" : 12.0,
						"description" : "",
						"digest" : "",
						"fontface" : 0,
						"fontname" : "Arial",
						"fontsize" : 12.0,
						"globalpatchername" : "",
						"tags" : ""
					}
,
					"text" : "p periodSelector"
				}

			}
, 			{
				"box" : 				{
					"channels" : 1,
					"id" : "obj-13",
					"maxclass" : "live.gain~",
					"numinlets" : 1,
					"numoutlets" : 4,
					"orientation" : 1,
					"outlettype" : [ "signal", "", "float", "list" ],
					"parameter_enable" : 1,
					"patching_rect" : [ 9.0, 555.25, 136.0, 31.0 ],
					"presentation" : 1,
					"presentation_rect" : [ 9.0, 555.25, 136.0, 31.0 ],
					"saved_attribute_attributes" : 					{
						"valueof" : 						{
							"parameter_longname" : "live.gain~",
							"parameter_shortname" : "live.gain~",
							"parameter_type" : 0,
							"parameter_mmin" : -70.0,
							"parameter_mmax" : 6.0,
							"parameter_initial_enable" : 1,
							"parameter_initial" : [ -12 ],
							"parameter_unitstyle" : 4
						}

					}
,
					"showname" : 0,
					"varname" : "live.gain~"
				}

			}
, 			{
				"box" : 				{
					"fontname" : "Arial",
					"fontsize" : 12.0,
					"id" : "obj-20",
					"maxclass" : "newobj",
					"numinlets" : 1,
					"numoutlets" : 1,
					"outlettype" : [ "" ],
					"patcher" : 					{
						"fileversion" : 1,
						"appversion" : 						{
							"major" : 6,
							"minor" : 1,
							"revision" : 7,
							"architecture" : "x64"
						}
,
						"rect" : [ 29.0, 69.0, 640.0, 480.0 ],
						"bglocked" : 0,
						"openinpresentation" : 0,
						"default_fontsize" : 12.0,
						"default_fontface" : 0,
						"default_fontname" : "Arial",
						"gridonopen" : 0,
						"gridsize" : [ 15.0, 15.0 ],
						"gridsnaponopen" : 0,
						"statusbarvisible" : 2,
						"toolbarvisible" : 1,
						"boxanimatetime" : 200,
						"imprint" : 0,
						"enablehscroll" : 1,
						"enablevscroll" : 1,
						"devicewidth" : 0.0,
						"description" : "",
						"digest" : "",
						"tags" : "",
						"boxes" : [ 							{
								"box" : 								{
									"fontname" : "Arial",
									"fontsize" : 12.0,
									"id" : "obj-1",
									"maxclass" : "newobj",
									"numinlets" : 1,
									"numoutlets" : 1,
									"outlettype" : [ "bang" ],
									"patching_rect" : [ 332.0, 243.0, 60.0, 20.0 ],
									"text" : "loadbang"
								}

							}
, 							{
								"box" : 								{
									"fontname" : "Arial",
									"fontsize" : 12.0,
									"id" : "obj-11",
									"linecount" : 2,
									"maxclass" : "message",
									"numinlets" : 2,
									"numoutlets" : 1,
									"outlettype" : [ "" ],
									"patching_rect" : [ 332.0, 272.0, 262.0, 31.0 ],
									"text" : "compile \"/Users/victor/Google Drive/stage-m1/VOKynesiS/lsf2lpcJS/lsf2lpc.js\""
								}

							}
, 							{
								"box" : 								{
									"fontname" : "Arial",
									"fontsize" : 12.0,
									"id" : "obj-2",
									"maxclass" : "newobj",
									"numinlets" : 1,
									"numoutlets" : 2,
									"outlettype" : [ "", "" ],
									"patching_rect" : [ 274.0, 331.0, 69.0, 20.0 ],
									"saved_object_attributes" : 									{
										"filename" : "/Users/victor/Google Drive/stage-m1/VOKynesiS/lsf2lpcJS/lsf2lpc.js",
										"parameter_enable" : 0
									}
,
									"text" : "js lsf2lpc.js"
								}

							}
, 							{
								"box" : 								{
									"comment" : "",
									"id" : "obj-7",
									"maxclass" : "outlet",
									"numinlets" : 1,
									"numoutlets" : 0,
									"patching_rect" : [ 274.0, 382.0, 25.0, 25.0 ]
								}

							}
, 							{
								"box" : 								{
									"comment" : "",
									"id" : "obj-6",
									"maxclass" : "inlet",
									"numinlets" : 0,
									"numoutlets" : 1,
									"outlettype" : [ "" ],
									"patching_rect" : [ 274.0, 229.0, 25.0, 25.0 ]
								}

							}
 ],
						"lines" : [ 							{
								"patchline" : 								{
									"destination" : [ "obj-11", 0 ],
									"disabled" : 0,
									"hidden" : 0,
									"source" : [ "obj-1", 0 ]
								}

							}
, 							{
								"patchline" : 								{
									"destination" : [ "obj-2", 0 ],
									"disabled" : 0,
									"hidden" : 0,
									"midpoints" : [ 341.5, 309.0, 283.5, 309.0 ],
									"source" : [ "obj-11", 0 ]
								}

							}
, 							{
								"patchline" : 								{
									"destination" : [ "obj-7", 0 ],
									"disabled" : 0,
									"hidden" : 0,
									"source" : [ "obj-2", 0 ]
								}

							}
, 							{
								"patchline" : 								{
									"destination" : [ "obj-2", 0 ],
									"disabled" : 0,
									"hidden" : 0,
									"source" : [ "obj-6", 0 ]
								}

							}
 ]
					}
,
					"patching_rect" : [ 168.0, 455.0, 76.0, 20.0 ],
					"presentation" : 1,
					"presentation_rect" : [ 168.0, 455.0, 76.0, 20.0 ],
					"saved_object_attributes" : 					{
						"default_fontface" : 0,
						"default_fontname" : "Arial",
						"default_fontsize" : 12.0,
						"description" : "",
						"digest" : "",
						"fontface" : 0,
						"fontname" : "Arial",
						"fontsize" : 12.0,
						"globalpatchername" : "",
						"tags" : ""
					}
,
					"text" : "p LSFtoLPC"
				}

			}
, 			{
				"box" : 				{
					"fontface" : 1,
					"fontname" : "Arial",
					"fontsize" : 20.0,
					"frgb" : 0.0,
					"id" : "obj-38",
					"maxclass" : "comment",
					"numinlets" : 1,
					"numoutlets" : 0,
					"patching_rect" : [ 541.0, 15.0, 244.0, 29.0 ],
					"presentation" : 1,
					"presentation_rect" : [ 541.0, 15.0, 244.0, 29.0 ],
					"text" : "TOOLBOX"
				}

			}
, 			{
				"box" : 				{
					"fontname" : "Arial",
					"fontsize" : 12.0,
					"frgb" : 0.0,
					"id" : "obj-36",
					"maxclass" : "comment",
					"numinlets" : 1,
					"numoutlets" : 0,
					"patching_rect" : [ 541.0, 46.0, 104.0, 20.0 ],
					"presentation" : 1,
					"presentation_rect" : [ 541.0, 46.0, 104.0, 20.0 ],
					"text" : "filter visualizer"
				}

			}
, 			{
				"box" : 				{
					"id" : "obj-12",
					"local" : 1,
					"maxclass" : "ezdac~",
					"numinlets" : 2,
					"numoutlets" : 0,
					"patching_rect" : [ 9.0, 676.5, 48.0, 48.0 ],
					"presentation" : 1,
					"presentation_rect" : [ 9.0, 676.5, 48.0, 48.0 ]
				}

			}
, 			{
				"box" : 				{
					"fontname" : "Arial",
					"fontsize" : 13.0,
					"id" : "obj-9",
					"maxclass" : "newobj",
					"numinlets" : 1,
					"numoutlets" : 1,
					"outlettype" : [ "int" ],
					"patcher" : 					{
						"fileversion" : 1,
						"appversion" : 						{
							"major" : 6,
							"minor" : 1,
							"revision" : 7,
							"architecture" : "x64"
						}
,
						"rect" : [ 309.0, 44.0, 904.0, 648.0 ],
						"bglocked" : 0,
						"openinpresentation" : 1,
						"default_fontsize" : 10.0,
						"default_fontface" : 0,
						"default_fontname" : "Arial",
						"gridonopen" : 0,
						"gridsize" : [ 5.0, 5.0 ],
						"gridsnaponopen" : 0,
						"statusbarvisible" : 2,
						"toolbarvisible" : 1,
						"boxanimatetime" : 200,
						"imprint" : 0,
						"enablehscroll" : 1,
						"enablevscroll" : 1,
						"devicewidth" : 0.0,
						"description" : "",
						"digest" : "",
						"tags" : "",
						"boxes" : [ 							{
								"box" : 								{
									"fontname" : "Arial",
									"fontsize" : 10.0,
									"id" : "obj-48",
									"maxclass" : "newobj",
									"numinlets" : 1,
									"numoutlets" : 1,
									"outlettype" : [ "int" ],
									"patching_rect" : [ 199.5, 223.0, 22.0, 18.0 ],
									"text" : "t 0"
								}

							}
, 							{
								"box" : 								{
									"fontname" : "Arial",
									"fontsize" : 10.0,
									"id" : "obj-47",
									"maxclass" : "newobj",
									"numinlets" : 2,
									"numoutlets" : 2,
									"outlettype" : [ "bang", "" ],
									"patching_rect" : [ 184.5, 195.0, 32.5, 18.0 ],
									"text" : "sel 1"
								}

							}
, 							{
								"box" : 								{
									"fontname" : "Arial",
									"fontsize" : 10.0,
									"id" : "obj-44",
									"maxclass" : "message",
									"numinlets" : 2,
									"numoutlets" : 1,
									"outlettype" : [ "" ],
									"patching_rect" : [ 156.0, 223.0, 32.5, 16.0 ],
									"text" : "1"
								}

							}
, 							{
								"box" : 								{
									"fontname" : "Arial",
									"fontsize" : 10.0,
									"id" : "obj-41",
									"maxclass" : "newobj",
									"numinlets" : 2,
									"numoutlets" : 2,
									"outlettype" : [ "", "" ],
									"patching_rect" : [ 156.0, 245.0, 67.0, 18.0 ],
									"text" : "zl group 256"
								}

							}
, 							{
								"box" : 								{
									"fontname" : "Arial",
									"fontsize" : 10.0,
									"id" : "obj-40",
									"maxclass" : "newobj",
									"numinlets" : 2,
									"numoutlets" : 3,
									"outlettype" : [ "bang", "bang", "int" ],
									"patching_rect" : [ 156.0, 170.0, 46.0, 18.0 ],
									"text" : "uzi"
								}

							}
, 							{
								"box" : 								{
									"id" : "obj-32",
									"maxclass" : "button",
									"numinlets" : 1,
									"numoutlets" : 1,
									"outlettype" : [ "bang" ],
									"patching_rect" : [ 12.0, 160.0, 20.0, 20.0 ]
								}

							}
, 							{
								"box" : 								{
									"domainlabel" : "normalized frequency",
									"id" : "obj-33",
									"margins" : [ 8.0, 8.0, 20.0, 50.0 ],
									"maxclass" : "plot~",
									"numinlets" : 1,
									"numoutlets" : 1,
									"numpoints" : 512,
									"outlettype" : [ "" ],
									"patching_rect" : [ 422.0, 593.0, 232.0, 174.0 ],
									"presentation" : 1,
									"presentation_rect" : [ 410.0, 450.0, 232.0, 174.0 ],
									"rangelabel" : "group delay (in samples)",
									"subplots" : [ 										{
											"color" : [ 0.4, 0.4, 0.75, 1.0 ],
											"thickness" : 1.5,
											"point_style" : "none",
											"line_style" : "linear",
											"number_style" : "none",
											"filter" : "none",
											"domain_start" : 0.0,
											"domain_end" : 1.0,
											"domain_style" : "linear",
											"domain_markers" : [ 1.0, 0.9, 0.8, 0.7, 0.6, 0.5, 0.4, 0.3, 0.2, 0.1, 0.0 ],
											"domain_labels" : [ 0.0, "  0", 0.1, "0.1", 0.2, "0.2", 0.3, "0.3", 0.4, "0.4", 0.5, "0.5", 0.6, "0.6", 0.7, "0.7", 0.8, "0.8", 0.9, "0.9", 1.0, " 1" ],
											"range_start" : 0.0,
											"range_end" : 55.0,
											"range_style" : "linear",
											"range_markers" : [ 0.0, 10.0, 20.0, 30.0, 40.0, 50.0, 55.0 ],
											"range_labels" : [ 10.0, "10 ", 20.0, "20 ", 30.0, "30 ", 40.0, "40 ", 50.0, "50 ", 0.0, "0 " ],
											"origin_x" : 0.0,
											"origin_y" : 0.0
										}
 ]
								}

							}
, 							{
								"box" : 								{
									"domainlabel" : "normalized frequency",
									"id" : "obj-34",
									"margins" : [ 8.0, 8.0, 20.0, 50.0 ],
									"maxclass" : "plot~",
									"numinlets" : 1,
									"numoutlets" : 1,
									"numpoints" : 512,
									"outlettype" : [ "" ],
									"patching_rect" : [ 422.0, 408.0, 232.0, 174.0 ],
									"presentation" : 1,
									"presentation_rect" : [ 410.0, 265.0, 232.0, 174.0 ],
									"rangelabel" : "phase delay (in samples)",
									"subplots" : [ 										{
											"color" : [ 0.4, 0.4, 0.75, 1.0 ],
											"thickness" : 1.5,
											"point_style" : "none",
											"line_style" : "linear",
											"number_style" : "none",
											"filter" : "none",
											"domain_start" : 0.0,
											"domain_end" : 1.0,
											"domain_style" : "linear",
											"domain_markers" : [ 1.0, 0.9, 0.8, 0.7, 0.6, 0.5, 0.4, 0.3, 0.2, 0.1, 0.0 ],
											"domain_labels" : [ 0.0, "  0", 0.1, "0.1", 0.2, "0.2", 0.3, "0.3", 0.4, "0.4", 0.5, "0.5", 0.6, "0.6", 0.7, "0.7", 0.8, "0.8", 0.9, "0.9", 1.0, " 1" ],
											"range_start" : 2.5,
											"range_end" : 8.0,
											"range_style" : "linear",
											"range_markers" : [ 2.5, 3.0, 3.5, 4.0, 4.5, 5.0, 5.5, 6.0, 6.5, 7.0, 7.5, 8.0 ],
											"range_labels" : [ 3.0, "3 ", 4.0, "4 ", 5.0, "5 ", 6.0, "6 ", 7.0, "7 ", 8.0, "8 " ],
											"origin_x" : 0.0,
											"origin_y" : 0.0
										}
 ]
								}

							}
, 							{
								"box" : 								{
									"domainlabel" : "normalized frequency",
									"id" : "obj-42",
									"margins" : [ 8.0, 8.0, 20.0, 50.0 ],
									"maxclass" : "plot~",
									"numinlets" : 1,
									"numoutlets" : 1,
									"numpoints" : 512,
									"outlettype" : [ "" ],
									"patching_rect" : [ 422.0, 223.0, 232.0, 174.0 ],
									"presentation" : 1,
									"presentation_rect" : [ 410.0, 80.0, 232.0, 174.0 ],
									"rangelabel" : "phase (radians)",
									"subplots" : [ 										{
											"color" : [ 0.4, 0.4, 0.75, 1.0 ],
											"thickness" : 1.5,
											"point_style" : "none",
											"line_style" : "linear",
											"number_style" : "none",
											"filter" : "none",
											"domain_start" : 0.0,
											"domain_end" : 1.0,
											"domain_style" : "linear",
											"domain_markers" : [ 1.0, 0.9, 0.8, 0.7, 0.6, 0.5, 0.4, 0.3, 0.2, 0.1, 0.0 ],
											"domain_labels" : [ 0.0, "  0", 0.1, "0.1", 0.2, "0.2", 0.3, "0.3", 0.4, "0.4", 0.5, "0.5", 0.6, "0.6", 0.7, "0.7", 0.8, "0.8", 0.9, "0.9", 1.0, " 1" ],
											"range_start" : -12.0,
											"range_end" : 0.0,
											"range_style" : "linear",
											"range_markers" : [ 0.0, -2.0, -4.0, -6.0, -8.0, -10.0, -12.0 ],
											"range_labels" : [ 0.0, "0 ", -2.0, "-2 ", -4.0, "-4 ", -6.0, "-6 ", -8.0, "-8 ", -10.0, "-10 ", -12.0, "-12 " ],
											"origin_x" : 0.0,
											"origin_y" : 0.0
										}
 ]
								}

							}
, 							{
								"box" : 								{
									"domainlabel" : "normalized frequency",
									"id" : "obj-35",
									"margins" : [ 8.0, 8.0, 20.0, 50.0 ],
									"maxclass" : "plot~",
									"numinlets" : 1,
									"numoutlets" : 1,
									"numpoints" : 512,
									"outlettype" : [ "" ],
									"patching_rect" : [ 26.0, 408.0, 378.0, 280.0 ],
									"presentation" : 1,
									"presentation_rect" : [ 25.0, 80.0, 378.0, 544.0 ],
									"rangelabel" : "magnitude (db)",
									"subplots" : [ 										{
											"color" : [ 0.4, 0.4, 0.75, 1.0 ],
											"thickness" : 1.5,
											"point_style" : "none",
											"line_style" : "linear",
											"number_style" : "none",
											"filter" : "atodb",
											"domain_start" : 0.0,
											"domain_end" : 1.0,
											"domain_style" : "linear",
											"domain_markers" : [ 1.0, 0.9, 0.8, 0.7, 0.6, 0.5, 0.4, 0.3, 0.2, 0.1, 0.0 ],
											"domain_labels" : [ 0.0, "  0", 0.1, "0.1", 0.2, "0.2", 0.3, "0.3", 0.4, "0.4", 0.5, "0.5", 0.6, "0.6", 0.7, "0.7", 0.8, "0.8", 0.9, "0.9", 1.0, " 1" ],
											"range_start" : -108.0,
											"range_end" : 6.0,
											"range_style" : "linear",
											"range_markers" : [ -108.0, -96.0, -84.0, -80.0, -72.0, -60.0, -48.0, -36.0, -24.0, -12.0, 0.0, 6.0 ],
											"range_labels" : [ 6.0, "+6", 0.0, "0", -12.0, "-12", -24.0, "-24", -36.0, "-36", -48.0, "-48", -60.0, "-60", -72.0, "-72", -80.0, "-80", -84.0, "-84", -96.0, "-96", -108.0, "-108" ],
											"origin_x" : 0.0,
											"origin_y" : 0.0
										}
 ]
								}

							}
, 							{
								"box" : 								{
									"domainlabel" : "samples",
									"id" : "obj-36",
									"margins" : [ 8.0, 8.0, 20.0, 50.0 ],
									"maxclass" : "plot~",
									"numinlets" : 1,
									"numoutlets" : 1,
									"numpoints" : 41,
									"outlettype" : [ "" ],
									"patching_rect" : [ 662.0, 408.0, 230.0, 174.0 ],
									"presentation" : 1,
									"presentation_rect" : [ 650.0, 265.0, 230.0, 174.0 ],
									"rangelabel" : "amplitude",
									"subplots" : [ 										{
											"color" : [ 0.4, 0.4, 0.75, 1.0 ],
											"thickness" : 1.5,
											"point_style" : "circle",
											"line_style" : "origin",
											"number_style" : "none",
											"filter" : "none",
											"domain_start" : 0.0,
											"domain_end" : 40.0,
											"domain_style" : "linear",
											"domain_markers" : [ 0.0, 5.0, 10.0, 15.0, 20.0, 25.0, 30.0, 35.0, 40.0 ],
											"domain_labels" : [ 0.0, "  0", 10.0, "10", 20.0, "20", 30.0, "30", 40.0, "40" ],
											"range_start" : 0.0,
											"range_end" : 1.2,
											"range_style" : "linear",
											"range_markers" : [ 0.0, 0.2, 0.4, 0.6, 0.8, 1.0, 1.2 ],
											"range_labels" : [ 0.0, "0 ", 0.2, "0.2 ", 0.4, "-0.4 ", 0.6, "0.6 ", 0.8, "0.8 ", 1.0, "1.0 ", 1.2, "1.2 " ],
											"origin_x" : 0.0,
											"origin_y" : 0.0
										}
 ]
								}

							}
, 							{
								"box" : 								{
									"domainlabel" : "samples",
									"id" : "obj-37",
									"margins" : [ 8.0, 8.0, 20.0, 50.0 ],
									"maxclass" : "plot~",
									"numinlets" : 1,
									"numoutlets" : 1,
									"numpoints" : 41,
									"outlettype" : [ "" ],
									"patching_rect" : [ 662.0, 223.0, 230.0, 174.0 ],
									"presentation" : 1,
									"presentation_rect" : [ 650.0, 80.0, 230.0, 174.0 ],
									"rangelabel" : "amplitude",
									"subplots" : [ 										{
											"color" : [ 0.4, 0.4, 0.75, 1.0 ],
											"thickness" : 1.5,
											"point_style" : "circle",
											"line_style" : "origin",
											"number_style" : "none",
											"filter" : "none",
											"domain_start" : 0.0,
											"domain_end" : 40.0,
											"domain_style" : "linear",
											"domain_markers" : [ 0.0, 5.0, 10.0, 15.0, 20.0, 25.0, 30.0, 35.0, 40.0 ],
											"domain_labels" : [ 0.0, "  0", 10.0, "10", 20.0, "20", 30.0, "30", 40.0, "40" ],
											"range_start" : -0.2,
											"range_end" : 0.35,
											"range_style" : "linear",
											"range_markers" : [ -0.2, -0.15, -0.1, -0.05, 0.0, 0.05, 0.1, 0.15, 0.2, 0.25, 0.3, 0.35 ],
											"range_labels" : [ -0.2, "-0.2 ", -0.1, "-0.1 ", 0.0, "0 ", 0.1, "0.1 ", 0.2, "0.2 ", 0.3, "0.3 " ],
											"origin_x" : 0.0,
											"origin_y" : 0.0
										}
 ]
								}

							}
, 							{
								"box" : 								{
									"fontname" : "Arial",
									"fontsize" : 13.0,
									"id" : "obj-38",
									"linecount" : 3,
									"maxclass" : "newobj",
									"numinlets" : 3,
									"numoutlets" : 1,
									"outlettype" : [ "dictionary" ],
									"patching_rect" : [ 26.0, 275.0, 200.0, 50.0 ],
									"text" : "dict.pack schema: filterdesign numerator: 0.25 0.25 0.25 0.25 denominator: 1. 0. 0. 0."
								}

							}
, 							{
								"box" : 								{
									"fontname" : "Arial",
									"fontsize" : 13.0,
									"id" : "obj-39",
									"maxclass" : "newobj",
									"numinlets" : 1,
									"numoutlets" : 6,
									"outlettype" : [ "", "", "", "", "", "" ],
									"patching_rect" : [ 26.0, 335.0, 86.5, 21.0 ],
									"text" : "filterdetail"
								}

							}
, 							{
								"box" : 								{
									"comment" : "",
									"id" : "obj-1",
									"maxclass" : "outlet",
									"numinlets" : 1,
									"numoutlets" : 0,
									"patching_rect" : [ 18.0, 105.0, 25.0, 25.0 ]
								}

							}
, 							{
								"box" : 								{
									"fontname" : "Arial",
									"fontsize" : 11.595187,
									"id" : "obj-2",
									"maxclass" : "message",
									"numinlets" : 2,
									"numoutlets" : 1,
									"outlettype" : [ "" ],
									"patching_rect" : [ 41.0, 43.0, 41.0, 17.0 ],
									"text" : "set $1"
								}

							}
, 							{
								"box" : 								{
									"fontname" : "Arial",
									"fontsize" : 11.595187,
									"id" : "obj-3",
									"maxclass" : "newobj",
									"numinlets" : 1,
									"numoutlets" : 1,
									"outlettype" : [ "" ],
									"patcher" : 									{
										"fileversion" : 1,
										"appversion" : 										{
											"major" : 6,
											"minor" : 1,
											"revision" : 7,
											"architecture" : "x64"
										}
,
										"rect" : [ 10.0, 59.0, 220.0, 256.0 ],
										"bglocked" : 0,
										"openinpresentation" : 0,
										"default_fontsize" : 10.0,
										"default_fontface" : 0,
										"default_fontname" : "Arial",
										"gridonopen" : 0,
										"gridsize" : [ 15.0, 15.0 ],
										"gridsnaponopen" : 0,
										"statusbarvisible" : 2,
										"toolbarvisible" : 1,
										"boxanimatetime" : 200,
										"imprint" : 0,
										"enablehscroll" : 1,
										"enablevscroll" : 1,
										"devicewidth" : 0.0,
										"description" : "",
										"digest" : "",
										"tags" : "",
										"boxes" : [ 											{
												"box" : 												{
													"comment" : "",
													"id" : "obj-1",
													"maxclass" : "outlet",
													"numinlets" : 1,
													"numoutlets" : 0,
													"patching_rect" : [ 80.0, 186.0, 25.0, 25.0 ]
												}

											}
, 											{
												"box" : 												{
													"fontname" : "Arial",
													"fontsize" : 11.595187,
													"id" : "obj-2",
													"maxclass" : "newobj",
													"numinlets" : 2,
													"numoutlets" : 2,
													"outlettype" : [ "", "" ],
													"patching_rect" : [ 80.0, 154.0, 92.0, 20.0 ],
													"text" : "zl group"
												}

											}
, 											{
												"box" : 												{
													"fontname" : "Arial",
													"fontsize" : 11.595187,
													"id" : "obj-4",
													"maxclass" : "newobj",
													"numinlets" : 2,
													"numoutlets" : 3,
													"outlettype" : [ "bang", "bang", "int" ],
													"patching_rect" : [ 50.0, 75.0, 49.0, 20.0 ],
													"text" : "uzi 1 0"
												}

											}
, 											{
												"box" : 												{
													"fontname" : "Arial",
													"fontsize" : 11.595187,
													"id" : "obj-5",
													"maxclass" : "newobj",
													"numinlets" : 3,
													"numoutlets" : 1,
													"outlettype" : [ "float" ],
													"patching_rect" : [ 80.0, 129.0, 78.0, 20.0 ],
													"text" : "peek~ fir_buf"
												}

											}
, 											{
												"box" : 												{
													"comment" : "",
													"id" : "obj-6",
													"maxclass" : "inlet",
													"numinlets" : 0,
													"numoutlets" : 1,
													"outlettype" : [ "" ],
													"patching_rect" : [ 50.0, 29.0, 25.0, 25.0 ]
												}

											}
 ],
										"lines" : [ 											{
												"patchline" : 												{
													"destination" : [ "obj-1", 0 ],
													"disabled" : 0,
													"hidden" : 0,
													"source" : [ "obj-2", 0 ]
												}

											}
, 											{
												"patchline" : 												{
													"destination" : [ "obj-5", 0 ],
													"disabled" : 0,
													"hidden" : 0,
													"source" : [ "obj-4", 2 ]
												}

											}
, 											{
												"patchline" : 												{
													"destination" : [ "obj-2", 0 ],
													"disabled" : 0,
													"hidden" : 0,
													"source" : [ "obj-5", 0 ]
												}

											}
, 											{
												"patchline" : 												{
													"destination" : [ "obj-2", 1 ],
													"disabled" : 0,
													"hidden" : 0,
													"midpoints" : [ 59.5, 54.0, 59.0, 54.0, 59.0, 66.0, 162.5, 66.0 ],
													"source" : [ "obj-6", 0 ]
												}

											}
, 											{
												"patchline" : 												{
													"destination" : [ "obj-4", 0 ],
													"disabled" : 0,
													"hidden" : 0,
													"source" : [ "obj-6", 0 ]
												}

											}
 ]
									}
,
									"patching_rect" : [ 51.0, 170.0, 94.0, 19.0 ],
									"saved_object_attributes" : 									{
										"default_fontface" : 0,
										"default_fontname" : "Arial",
										"default_fontsize" : 10.0,
										"description" : "",
										"digest" : "",
										"fontface" : 0,
										"fontname" : "Arial",
										"fontsize" : 10.0,
										"globalpatchername" : "",
										"tags" : ""
									}
,
									"text" : "p show_impulse"
								}

							}
, 							{
								"box" : 								{
									"comment" : "",
									"id" : "obj-5",
									"maxclass" : "inlet",
									"numinlets" : 0,
									"numoutlets" : 1,
									"outlettype" : [ "" ],
									"patching_rect" : [ 26.0, 3.0, 25.0, 25.0 ]
								}

							}
, 							{
								"box" : 								{
									"fontname" : "Arial",
									"fontsize" : 11.595187,
									"id" : "obj-7",
									"maxclass" : "newobj",
									"numinlets" : 1,
									"numoutlets" : 1,
									"outlettype" : [ "bang" ],
									"patching_rect" : [ 85.0, 31.0, 58.0, 19.0 ],
									"text" : "loadbang"
								}

							}
, 							{
								"box" : 								{
									"fontname" : "Arial",
									"fontsize" : 11.595187,
									"id" : "obj-8",
									"maxclass" : "message",
									"numinlets" : 2,
									"numoutlets" : 1,
									"outlettype" : [ "" ],
									"patching_rect" : [ 87.0, 56.0, 22.0, 17.0 ],
									"text" : "10"
								}

							}
, 							{
								"box" : 								{
									"fontname" : "Arial",
									"fontsize" : 13.0,
									"id" : "obj-13",
									"maxclass" : "number",
									"maximum" : 128,
									"minimum" : 1,
									"numinlets" : 1,
									"numoutlets" : 2,
									"outlettype" : [ "int", "bang" ],
									"parameter_enable" : 0,
									"patching_rect" : [ 41.0, 75.0, 54.0, 21.0 ],
									"presentation" : 1,
									"presentation_rect" : [ 21.0, 44.0, 54.0, 21.0 ],
									"triscale" : 0.9
								}

							}
, 							{
								"box" : 								{
									"fontname" : "Arial",
									"fontsize" : 13.0,
									"frgb" : 0.0,
									"id" : "obj-19",
									"maxclass" : "comment",
									"numinlets" : 1,
									"numoutlets" : 0,
									"patching_rect" : [ 90.0, 76.0, 123.0, 21.0 ],
									"presentation" : 1,
									"presentation_rect" : [ 81.0, 44.0, 123.0, 21.0 ],
									"text" : "number of samples"
								}

							}
, 							{
								"box" : 								{
									"fontname" : "Arial",
									"fontsize" : 13.0,
									"frgb" : 0.0,
									"id" : "obj-20",
									"linecount" : 2,
									"maxclass" : "comment",
									"numinlets" : 1,
									"numoutlets" : 0,
									"patching_rect" : [ 399.0, 18.0, 349.0, 36.0 ],
									"presentation" : 1,
									"presentation_linecount" : 2,
									"presentation_rect" : [ 243.0, 24.0, 349.0, 36.0 ],
									"text" : "this patch calculates the filter response of the FIR filter in the main patch for a given number of samples (coefficients)"
								}

							}
, 							{
								"box" : 								{
									"fontname" : "Arial",
									"fontsize" : 13.0,
									"frgb" : 0.0,
									"id" : "obj-22",
									"maxclass" : "comment",
									"numinlets" : 1,
									"numoutlets" : 0,
									"patching_rect" : [ 127.0, 15.0, 200.0, 21.0 ],
									"presentation" : 1,
									"presentation_rect" : [ 15.0, 18.0, 200.0, 21.0 ],
									"text" : "FIR frequency response"
								}

							}
, 							{
								"box" : 								{
									"fontname" : "Arial",
									"fontsize" : 13.0,
									"frgb" : 0.0,
									"id" : "obj-23",
									"maxclass" : "comment",
									"numinlets" : 1,
									"numoutlets" : 0,
									"patching_rect" : [ 545.0, 60.0, 173.0, 21.0 ],
									"presentation" : 1,
									"presentation_rect" : [ 678.5, 59.0, 173.0, 21.0 ],
									"text" : "<- impulse stored in buffer~"
								}

							}
 ],
						"lines" : [ 							{
								"patchline" : 								{
									"destination" : [ "obj-1", 0 ],
									"disabled" : 0,
									"hidden" : 0,
									"source" : [ "obj-13", 0 ]
								}

							}
, 							{
								"patchline" : 								{
									"destination" : [ "obj-3", 0 ],
									"disabled" : 0,
									"hidden" : 0,
									"source" : [ "obj-13", 0 ]
								}

							}
, 							{
								"patchline" : 								{
									"destination" : [ "obj-40", 0 ],
									"disabled" : 0,
									"hidden" : 0,
									"source" : [ "obj-13", 0 ]
								}

							}
, 							{
								"patchline" : 								{
									"destination" : [ "obj-13", 0 ],
									"disabled" : 0,
									"hidden" : 0,
									"source" : [ "obj-2", 0 ]
								}

							}
, 							{
								"patchline" : 								{
									"destination" : [ "obj-38", 1 ],
									"disabled" : 0,
									"hidden" : 0,
									"source" : [ "obj-3", 0 ]
								}

							}
, 							{
								"patchline" : 								{
									"destination" : [ "obj-38", 0 ],
									"disabled" : 0,
									"hidden" : 0,
									"source" : [ "obj-32", 0 ]
								}

							}
, 							{
								"patchline" : 								{
									"destination" : [ "obj-39", 0 ],
									"disabled" : 0,
									"hidden" : 0,
									"source" : [ "obj-38", 0 ]
								}

							}
, 							{
								"patchline" : 								{
									"destination" : [ "obj-33", 0 ],
									"disabled" : 0,
									"hidden" : 0,
									"midpoints" : [ 76.0, 375.0, 411.0, 375.0, 411.0, 588.0, 431.5, 588.0 ],
									"source" : [ "obj-39", 3 ]
								}

							}
, 							{
								"patchline" : 								{
									"destination" : [ "obj-34", 0 ],
									"disabled" : 0,
									"hidden" : 0,
									"midpoints" : [ 62.5, 372.0, 416.0, 372.0, 416.0, 402.0, 431.5, 402.0 ],
									"source" : [ "obj-39", 2 ]
								}

							}
, 							{
								"patchline" : 								{
									"destination" : [ "obj-35", 0 ],
									"disabled" : 0,
									"hidden" : 0,
									"source" : [ "obj-39", 0 ]
								}

							}
, 							{
								"patchline" : 								{
									"destination" : [ "obj-36", 0 ],
									"disabled" : 0,
									"hidden" : 0,
									"midpoints" : [ 103.0, 363.0, 362.0, 363.0, 362.0, 194.0, 903.0, 194.0, 903.0, 403.0, 671.5, 403.0 ],
									"source" : [ "obj-39", 5 ]
								}

							}
, 							{
								"patchline" : 								{
									"destination" : [ "obj-37", 0 ],
									"disabled" : 0,
									"hidden" : 0,
									"midpoints" : [ 89.5, 366.0, 374.0, 366.0, 374.0, 210.0, 671.5, 210.0 ],
									"source" : [ "obj-39", 4 ]
								}

							}
, 							{
								"patchline" : 								{
									"destination" : [ "obj-42", 0 ],
									"disabled" : 0,
									"hidden" : 0,
									"midpoints" : [ 49.0, 369.0, 390.0, 369.0, 390.0, 215.0, 431.5, 215.0 ],
									"source" : [ "obj-39", 1 ]
								}

							}
, 							{
								"patchline" : 								{
									"destination" : [ "obj-41", 0 ],
									"disabled" : 0,
									"hidden" : 0,
									"source" : [ "obj-40", 1 ]
								}

							}
, 							{
								"patchline" : 								{
									"destination" : [ "obj-47", 0 ],
									"disabled" : 0,
									"hidden" : 0,
									"source" : [ "obj-40", 2 ]
								}

							}
, 							{
								"patchline" : 								{
									"destination" : [ "obj-38", 2 ],
									"disabled" : 0,
									"hidden" : 0,
									"source" : [ "obj-41", 0 ]
								}

							}
, 							{
								"patchline" : 								{
									"destination" : [ "obj-41", 0 ],
									"disabled" : 0,
									"hidden" : 0,
									"source" : [ "obj-44", 0 ]
								}

							}
, 							{
								"patchline" : 								{
									"destination" : [ "obj-44", 0 ],
									"disabled" : 0,
									"hidden" : 0,
									"source" : [ "obj-47", 0 ]
								}

							}
, 							{
								"patchline" : 								{
									"destination" : [ "obj-48", 0 ],
									"disabled" : 0,
									"hidden" : 0,
									"source" : [ "obj-47", 1 ]
								}

							}
, 							{
								"patchline" : 								{
									"destination" : [ "obj-41", 0 ],
									"disabled" : 0,
									"hidden" : 0,
									"source" : [ "obj-48", 0 ]
								}

							}
, 							{
								"patchline" : 								{
									"destination" : [ "obj-2", 0 ],
									"disabled" : 0,
									"hidden" : 0,
									"source" : [ "obj-5", 0 ]
								}

							}
, 							{
								"patchline" : 								{
									"destination" : [ "obj-3", 0 ],
									"disabled" : 0,
									"hidden" : 0,
									"source" : [ "obj-5", 0 ]
								}

							}
, 							{
								"patchline" : 								{
									"destination" : [ "obj-32", 0 ],
									"disabled" : 0,
									"hidden" : 0,
									"source" : [ "obj-5", 0 ]
								}

							}
, 							{
								"patchline" : 								{
									"destination" : [ "obj-8", 0 ],
									"disabled" : 0,
									"hidden" : 0,
									"source" : [ "obj-7", 0 ]
								}

							}
, 							{
								"patchline" : 								{
									"destination" : [ "obj-13", 0 ],
									"disabled" : 0,
									"hidden" : 0,
									"source" : [ "obj-8", 0 ]
								}

							}
 ]
					}
,
					"patching_rect" : [ 541.0, 66.0, 104.0, 21.0 ],
					"presentation" : 1,
					"presentation_rect" : [ 541.0, 66.0, 104.0, 21.0 ],
					"saved_object_attributes" : 					{
						"default_fontface" : 0,
						"default_fontname" : "Arial",
						"default_fontsize" : 10.0,
						"description" : "",
						"digest" : "",
						"fontface" : 0,
						"fontname" : "Arial",
						"fontsize" : 10.0,
						"globalpatchername" : "",
						"tags" : ""
					}
,
					"text" : "p filter response"
				}

			}
, 			{
				"box" : 				{
					"color" : [ 0.501961, 0.0, 1.0, 1.0 ],
					"fontname" : "Arial",
					"fontsize" : 12.0,
					"id" : "obj-24",
					"maxclass" : "newobj",
					"numinlets" : 1,
					"numoutlets" : 1,
					"outlettype" : [ "" ],
					"patching_rect" : [ 322.0, 6.0, 79.0, 20.0 ],
					"presentation" : 1,
					"presentation_rect" : [ 322.0, 6.0, 79.0, 20.0 ],
					"text" : "loadmess 50"
				}

			}
, 			{
				"box" : 				{
					"color" : [ 0.501961, 0.0, 1.0, 1.0 ],
					"fontname" : "Arial",
					"fontsize" : 12.0,
					"id" : "obj-23",
					"maxclass" : "newobj",
					"numinlets" : 1,
					"numoutlets" : 0,
					"patching_rect" : [ 322.0, 33.0, 73.0, 20.0 ],
					"presentation" : 1,
					"presentation_rect" : [ 322.0, 33.0, 73.0, 20.0 ],
					"text" : "s filterOrder"
				}

			}
, 			{
				"box" : 				{
					"color" : [ 0.4, 0.4, 1.0, 1.0 ],
					"fontname" : "Calibri",
					"fontsize" : 12.0,
					"id" : "obj-49",
					"maxclass" : "newobj",
					"numinlets" : 1,
					"numoutlets" : 1,
					"outlettype" : [ "" ],
					"patching_rect" : [ 235.0, 6.0, 71.0, 21.0 ],
					"presentation" : 1,
					"presentation_rect" : [ 235.0, 6.0, 71.0, 21.0 ],
					"text" : "loadmess 0"
				}

			}
, 			{
				"box" : 				{
					"color" : [ 1.0, 0.501961, 0.0, 1.0 ],
					"fontface" : 1,
					"fontname" : "Arial",
					"fontsize" : 20.0,
					"id" : "obj-1",
					"maxclass" : "newobj",
					"numinlets" : 0,
					"numoutlets" : 1,
					"outlettype" : [ "" ],
					"patching_rect" : [ 168.0, 415.5, 107.0, 29.0 ],
					"presentation" : 1,
					"presentation_rect" : [ 168.0, 415.5, 107.0, 29.0 ],
					"text" : "LSFinterp"
				}

			}
, 			{
				"box" : 				{
					"color" : [ 0.4, 0.4, 1.0, 1.0 ],
					"fontname" : "Arial",
					"fontsize" : 12.0,
					"id" : "obj-5",
					"maxclass" : "newobj",
					"numinlets" : 0,
					"numoutlets" : 1,
					"outlettype" : [ "int" ],
					"patcher" : 					{
						"fileversion" : 1,
						"appversion" : 						{
							"major" : 6,
							"minor" : 1,
							"revision" : 7,
							"architecture" : "x64"
						}
,
						"rect" : [ 186.0, 143.0, 640.0, 480.0 ],
						"bglocked" : 0,
						"openinpresentation" : 0,
						"default_fontsize" : 12.0,
						"default_fontface" : 0,
						"default_fontname" : "Arial",
						"gridonopen" : 0,
						"gridsize" : [ 15.0, 15.0 ],
						"gridsnaponopen" : 0,
						"statusbarvisible" : 2,
						"toolbarvisible" : 1,
						"boxanimatetime" : 200,
						"imprint" : 0,
						"enablehscroll" : 1,
						"enablevscroll" : 1,
						"devicewidth" : 0.0,
						"description" : "",
						"digest" : "",
						"tags" : "",
						"boxes" : [ 							{
								"box" : 								{
									"fontname" : "Calibri",
									"fontsize" : 11.0,
									"id" : "obj-23",
									"maxclass" : "newobj",
									"numinlets" : 2,
									"numoutlets" : 1,
									"outlettype" : [ "int" ],
									"patching_rect" : [ 50.0, 242.0, 32.5, 20.0 ],
									"text" : "+ 1"
								}

							}
, 							{
								"box" : 								{
									"fontname" : "Calibri",
									"fontsize" : 11.0,
									"id" : "obj-83",
									"maxclass" : "message",
									"numinlets" : 2,
									"numoutlets" : 1,
									"outlettype" : [ "" ],
									"patching_rect" : [ 50.0, 170.0, 32.5, 18.0 ],
									"text" : "0"
								}

							}
, 							{
								"box" : 								{
									"fontname" : "Calibri",
									"fontsize" : 11.0,
									"id" : "obj-8",
									"maxclass" : "newobj",
									"numinlets" : 1,
									"numoutlets" : 2,
									"outlettype" : [ "bang", "bang" ],
									"patching_rect" : [ 50.0, 145.0, 39.0, 20.0 ],
									"text" : "t b b"
								}

							}
, 							{
								"box" : 								{
									"fontname" : "Calibri",
									"fontsize" : 11.0,
									"id" : "obj-37",
									"maxclass" : "newobj",
									"numinlets" : 2,
									"numoutlets" : 1,
									"outlettype" : [ "bang" ],
									"patching_rect" : [ 50.0, 122.5, 58.0, 20.0 ],
									"text" : "delay 100"
								}

							}
, 							{
								"box" : 								{
									"fontname" : "Calibri",
									"fontsize" : 11.0,
									"id" : "obj-29",
									"maxclass" : "newobj",
									"numinlets" : 1,
									"numoutlets" : 1,
									"outlettype" : [ "bang" ],
									"patching_rect" : [ 50.0, 100.0, 56.0, 20.0 ],
									"text" : "loadbang"
								}

							}
, 							{
								"box" : 								{
									"comment" : "",
									"id" : "obj-4",
									"maxclass" : "outlet",
									"numinlets" : 1,
									"numoutlets" : 0,
									"patching_rect" : [ 50.0, 322.0, 25.0, 25.0 ]
								}

							}
 ],
						"lines" : [ 							{
								"patchline" : 								{
									"destination" : [ "obj-4", 0 ],
									"disabled" : 0,
									"hidden" : 0,
									"source" : [ "obj-23", 0 ]
								}

							}
, 							{
								"patchline" : 								{
									"destination" : [ "obj-37", 0 ],
									"disabled" : 0,
									"hidden" : 0,
									"source" : [ "obj-29", 0 ]
								}

							}
, 							{
								"patchline" : 								{
									"destination" : [ "obj-8", 0 ],
									"disabled" : 0,
									"hidden" : 0,
									"source" : [ "obj-37", 0 ]
								}

							}
, 							{
								"patchline" : 								{
									"destination" : [ "obj-83", 0 ],
									"disabled" : 0,
									"hidden" : 0,
									"source" : [ "obj-8", 0 ]
								}

							}
, 							{
								"patchline" : 								{
									"destination" : [ "obj-23", 0 ],
									"disabled" : 0,
									"hidden" : 0,
									"source" : [ "obj-83", 0 ]
								}

							}
 ]
					}
,
					"patching_rect" : [ 9.0, 7.0, 57.0, 20.0 ],
					"presentation" : 1,
					"presentation_rect" : [ 9.0, 7.0, 57.0, 20.0 ],
					"saved_object_attributes" : 					{
						"default_fontface" : 0,
						"default_fontname" : "Arial",
						"default_fontsize" : 12.0,
						"description" : "",
						"digest" : "",
						"fontface" : 0,
						"fontname" : "Arial",
						"fontsize" : 12.0,
						"globalpatchername" : "",
						"tags" : ""
					}
,
					"text" : "p startup"
				}

			}
, 			{
				"box" : 				{
					"color" : [ 0.0, 0.0, 0.0, 1.0 ],
					"fontname" : "Calibri Bold",
					"fontsize" : 14.0,
					"id" : "obj-94",
					"maxclass" : "newobj",
					"numinlets" : 1,
					"numoutlets" : 1,
					"outlettype" : [ "int" ],
					"patching_rect" : [ 29.0, 77.0, 72.0, 24.0 ],
					"presentation" : 1,
					"presentation_rect" : [ 29.0, 77.0, 72.0, 24.0 ],
					"text" : "MapMode"
				}

			}
, 			{
				"box" : 				{
					"id" : "obj-61",
					"maxclass" : "button",
					"numinlets" : 1,
					"numoutlets" : 1,
					"outlettype" : [ "bang" ],
					"patching_rect" : [ 9.0, 77.0, 20.0, 20.0 ],
					"presentation" : 1,
					"presentation_rect" : [ 9.0, 77.0, 20.0, 20.0 ]
				}

			}
, 			{
				"box" : 				{
					"fontname" : "Calibri",
					"fontsize" : 11.0,
					"id" : "obj-54",
					"maxclass" : "message",
					"numinlets" : 2,
					"numoutlets" : 1,
					"outlettype" : [ "" ],
					"patching_rect" : [ 9.0, 115.204956, 36.0, 18.0 ],
					"presentation" : 1,
					"presentation_rect" : [ 9.0, 115.204956, 36.0, 18.0 ],
					"text" : "open"
				}

			}
, 			{
				"box" : 				{
					"fontname" : "Calibri",
					"fontsize" : 11.0,
					"id" : "obj-109",
					"maxclass" : "newobj",
					"numinlets" : 1,
					"numoutlets" : 1,
					"outlettype" : [ "" ],
					"patching_rect" : [ 9.0, 135.0, 51.0, 20.0 ],
					"presentation" : 1,
					"presentation_rect" : [ 9.0, 135.0, 51.0, 20.0 ],
					"text" : "pcontrol"
				}

			}
, 			{
				"box" : 				{
					"color" : [ 0.0, 0.0, 0.0, 1.0 ],
					"fontname" : "Calibri Bold",
					"fontsize" : 14.0,
					"id" : "obj-271",
					"maxclass" : "newobj",
					"numinlets" : 1,
					"numoutlets" : 0,
					"patching_rect" : [ 109.0, 77.0, 107.0, 24.0 ],
					"presentation" : 1,
					"presentation_rect" : [ 109.0, 77.0, 107.0, 24.0 ],
					"text" : "ShowHideMode"
				}

			}
, 			{
				"box" : 				{
					"fontname" : "Calibri",
					"fontsize" : 11.0,
					"id" : "obj-69",
					"maxclass" : "number",
					"numinlets" : 1,
					"numoutlets" : 2,
					"outlettype" : [ "int", "bang" ],
					"parameter_enable" : 0,
					"patching_rect" : [ 69.0, 135.0, 28.0, 20.0 ],
					"presentation" : 1,
					"presentation_rect" : [ 69.0, 135.0, 28.0, 20.0 ]
				}

			}
, 			{
				"box" : 				{
					"color" : [ 0.373433, 0.140743, 0.682415, 1.0 ],
					"fontname" : "Calibri Bold",
					"fontsize" : 20.0,
					"id" : "obj-28",
					"maxclass" : "newobj",
					"numinlets" : 0,
					"numoutlets" : 0,
					"patching_rect" : [ 9.0, 211.0, 140.0, 31.0 ],
					"presentation" : 1,
					"presentation_rect" : [ 9.0, 211.0, 140.0, 31.0 ],
					"text" : "VowelMapping"
				}

			}
, 			{
				"box" : 				{
					"color" : [ 0.0, 0.459731, 0.806452, 1.0 ],
					"fontname" : "Calibri Bold",
					"fontsize" : 20.0,
					"id" : "obj-2",
					"maxclass" : "newobj",
					"numinlets" : 2,
					"numoutlets" : 0,
					"patching_rect" : [ 9.0, 174.0, 245.0, 31.0 ],
					"presentation" : 1,
					"presentation_rect" : [ 9.0, 174.0, 245.0, 31.0 ],
					"text" : "Control"
				}

			}
 ],
		"lines" : [ 			{
				"patchline" : 				{
					"color" : [ 1.0, 0.501961, 0.0, 1.0 ],
					"destination" : [ "obj-20", 0 ],
					"disabled" : 0,
					"hidden" : 0,
					"source" : [ "obj-1", 0 ]
				}

			}
, 			{
				"patchline" : 				{
					"destination" : [ "obj-13", 0 ],
					"disabled" : 0,
					"hidden" : 0,
					"source" : [ "obj-10", 0 ]
				}

			}
, 			{
				"patchline" : 				{
					"destination" : [ "obj-2", 0 ],
					"disabled" : 0,
					"hidden" : 0,
					"midpoints" : [ 18.5, 166.75, 18.5, 166.75 ],
					"source" : [ "obj-109", 0 ]
				}

			}
, 			{
				"patchline" : 				{
					"destination" : [ "obj-8", 0 ],
					"disabled" : 0,
					"hidden" : 0,
					"source" : [ "obj-11", 0 ]
				}

			}
, 			{
				"patchline" : 				{
					"destination" : [ "obj-12", 1 ],
					"disabled" : 0,
					"hidden" : 0,
					"source" : [ "obj-13", 0 ]
				}

			}
, 			{
				"patchline" : 				{
					"destination" : [ "obj-12", 0 ],
					"disabled" : 0,
					"hidden" : 0,
					"source" : [ "obj-13", 0 ]
				}

			}
, 			{
				"patchline" : 				{
					"destination" : [ "obj-25", 0 ],
					"disabled" : 0,
					"hidden" : 0,
					"source" : [ "obj-13", 0 ]
				}

			}
, 			{
				"patchline" : 				{
					"destination" : [ "obj-10", 1 ],
					"disabled" : 0,
					"hidden" : 0,
					"source" : [ "obj-19", 0 ]
				}

			}
, 			{
				"patchline" : 				{
					"destination" : [ "obj-10", 1 ],
					"disabled" : 0,
					"hidden" : 0,
					"source" : [ "obj-20", 0 ]
				}

			}
, 			{
				"patchline" : 				{
					"destination" : [ "obj-31", 0 ],
					"disabled" : 0,
					"hidden" : 0,
					"source" : [ "obj-22", 0 ]
				}

			}
, 			{
				"patchline" : 				{
					"destination" : [ "obj-23", 0 ],
					"disabled" : 0,
					"hidden" : 0,
					"source" : [ "obj-24", 0 ]
				}

			}
, 			{
				"patchline" : 				{
					"destination" : [ "obj-10", 0 ],
					"disabled" : 0,
					"hidden" : 0,
					"source" : [ "obj-31", 0 ]
				}

			}
, 			{
				"patchline" : 				{
					"destination" : [ "obj-18", 0 ],
					"disabled" : 0,
					"hidden" : 0,
					"source" : [ "obj-32", 0 ]
				}

			}
, 			{
				"patchline" : 				{
					"destination" : [ "obj-2", 1 ],
					"disabled" : 0,
					"hidden" : 0,
					"source" : [ "obj-49", 0 ]
				}

			}
, 			{
				"patchline" : 				{
					"color" : [ 0.501961, 0.0, 1.0, 1.0 ],
					"destination" : [ "obj-271", 0 ],
					"disabled" : 0,
					"hidden" : 0,
					"midpoints" : [ 18.5, 58.0, 118.5, 58.0 ],
					"source" : [ "obj-5", 0 ]
				}

			}
, 			{
				"patchline" : 				{
					"color" : [ 0.098039, 0.098039, 0.098039, 1.0 ],
					"destination" : [ "obj-61", 0 ],
					"disabled" : 0,
					"hidden" : 0,
					"midpoints" : [ 18.5, 28.0, 18.5, 28.0 ],
					"source" : [ "obj-5", 0 ]
				}

			}
, 			{
				"patchline" : 				{
					"color" : [ 0.501961, 0.0, 1.0, 1.0 ],
					"destination" : [ "obj-94", 0 ],
					"disabled" : 0,
					"hidden" : 0,
					"midpoints" : [ 18.5, 58.0, 38.5, 58.0 ],
					"source" : [ "obj-5", 0 ]
				}

			}
, 			{
				"patchline" : 				{
					"destination" : [ "obj-109", 0 ],
					"disabled" : 0,
					"hidden" : 0,
					"source" : [ "obj-54", 0 ]
				}

			}
, 			{
				"patchline" : 				{
					"color" : [ 0.098039, 0.098039, 0.098039, 1.0 ],
					"destination" : [ "obj-54", 0 ],
					"disabled" : 0,
					"hidden" : 0,
					"midpoints" : [ 18.5, 94.0, 18.5, 94.0 ],
					"source" : [ "obj-61", 0 ]
				}

			}
, 			{
				"patchline" : 				{
					"destination" : [ "obj-2", 0 ],
					"disabled" : 0,
					"hidden" : 0,
					"midpoints" : [ 78.5, 168.5, 18.5, 168.5 ],
					"source" : [ "obj-69", 0 ]
				}

			}
, 			{
				"patchline" : 				{
					"destination" : [ "obj-69", 0 ],
					"disabled" : 0,
					"hidden" : 0,
					"midpoints" : [ 38.5, 109.0, 78.5, 109.0 ],
					"source" : [ "obj-94", 0 ]
				}

			}
 ],
		"parameters" : 		{
			"obj-13" : [ "live.gain~", "live.gain~", 0 ]
		}
,
		"dependency_cache" : [ 			{
				"name" : "Control.maxpat",
				"bootpath" : "/Users/victor/Google Drive/stage-m1/VOKantor",
				"patcherrelativepath" : ".",
				"type" : "JSON",
				"implicit" : 1
			}
, 			{
				"name" : "License.maxpat",
				"bootpath" : "/Users/victor/Google Drive/stage-m1/VOKantor",
				"patcherrelativepath" : ".",
				"type" : "JSON",
				"implicit" : 1
			}
, 			{
				"name" : "CantorTabExt.maxpat",
				"bootpath" : "/Users/victor/Google Drive/stage-m1/VOKantor",
				"patcherrelativepath" : ".",
				"type" : "JSON",
				"implicit" : 1
			}
, 			{
				"name" : "WacomUDPreceive_1.6.maxpat",
				"bootpath" : "/Users/victor/Google Drive/stage-m1/VOKantor",
				"patcherrelativepath" : ".",
				"type" : "JSON",
				"implicit" : 1
			}
, 			{
				"name" : "CantorMIDI.maxpat",
				"bootpath" : "/Users/victor/Google Drive/stage-m1/VOKantor",
				"patcherrelativepath" : ".",
				"type" : "JSON",
				"implicit" : 1
			}
, 			{
				"name" : "CantorMouse.maxpat",
				"bootpath" : "/Users/victor/Google Drive/stage-m1/VOKantor",
				"patcherrelativepath" : ".",
				"type" : "JSON",
				"implicit" : 1
			}
, 			{
				"name" : "CantorTab.maxpat",
				"bootpath" : "/Users/victor/Google Drive/stage-m1/VOKantor",
				"patcherrelativepath" : ".",
				"type" : "JSON",
				"implicit" : 1
			}
, 			{
				"name" : "WacomOP_v4.maxpat",
				"bootpath" : "/Users/victor/Google Drive/stage-m1/VOKantor",
				"patcherrelativepath" : ".",
				"type" : "JSON",
				"implicit" : 1
			}
, 			{
				"name" : "recordData.maxpat",
				"bootpath" : "/Users/victor/Google Drive/stage-m1/VOKantor",
				"patcherrelativepath" : ".",
				"type" : "JSON",
				"implicit" : 1
			}
, 			{
				"name" : "VowelMapping.maxpat",
				"bootpath" : "/Users/victor/Google Drive/stage-m1/VOKantor",
				"patcherrelativepath" : ".",
				"type" : "JSON",
				"implicit" : 1
			}
, 			{
				"name" : "ShowHideMode.maxpat",
				"bootpath" : "/Users/victor/Google Drive/stage-m1/VOKantor",
				"patcherrelativepath" : ".",
				"type" : "JSON",
				"implicit" : 1
			}
, 			{
				"name" : "MapMode.maxpat",
				"bootpath" : "/Users/victor/Google Drive/stage-m1/VOKantor",
				"patcherrelativepath" : ".",
				"type" : "JSON",
				"implicit" : 1
			}
, 			{
				"name" : "LSFinterp.maxpat",
				"bootpath" : "/Users/victor/Google Drive/stage-m1/VOKantor",
				"patcherrelativepath" : ".",
				"type" : "JSON",
				"implicit" : 1
			}
, 			{
				"name" : "vowelInterpolation.maxpat",
				"bootpath" : "/Users/victor/Google Drive/stage-m1/VOKantor",
				"patcherrelativepath" : ".",
				"type" : "JSON",
				"implicit" : 1
			}
, 			{
				"name" : "2Dinterp.maxpat",
				"bootpath" : "/Users/victor/Google Drive/stage-m1/VOKantor",
				"patcherrelativepath" : ".",
				"type" : "JSON",
				"implicit" : 1
			}
, 			{
				"name" : "vowelAreas.maxpat",
				"bootpath" : "/Users/victor/Google Drive/stage-m1/VOKantor",
				"patcherrelativepath" : ".",
				"type" : "JSON",
				"implicit" : 1
			}
, 			{
				"name" : "LSFcoefficients.maxpat",
				"bootpath" : "/Users/victor/Google Drive/stage-m1/VOKantor",
				"patcherrelativepath" : ".",
				"type" : "JSON",
				"implicit" : 1
			}
, 			{
				"name" : "lsf2lpc.js",
				"bootpath" : "/Users/victor/Google Drive/stage-m1/VOKynesiS/lsf2lpcJS",
				"patcherrelativepath" : "../VOKynesiS/lsf2lpcJS",
				"type" : "TEXT",
				"implicit" : 1
			}
, 			{
				"name" : "residualInterp.maxpat",
				"bootpath" : "/Users/victor/Google Drive/stage-m1/VOKantor",
				"patcherrelativepath" : ".",
				"type" : "JSON",
				"implicit" : 1
			}
, 			{
				"name" : "residualMapping.maxpat",
				"bootpath" : "/Users/victor/Google Drive/stage-m1/VOKantor",
				"patcherrelativepath" : ".",
				"type" : "JSON",
				"implicit" : 1
			}
, 			{
				"name" : "allpole~.maxpat",
				"bootpath" : "/Users/victor/Google Drive/stage-m1/VOKantor",
				"patcherrelativepath" : ".",
				"type" : "JSON",
				"implicit" : 1
			}
, 			{
				"name" : "allpole~.gendsp",
				"bootpath" : "/Users/victor/Google Drive/stage-m1/VOKantor",
				"patcherrelativepath" : ".",
				"type" : "gDSP",
				"implicit" : 1
			}
, 			{
				"name" : "s2m.wacom.mxo",
				"type" : "iLaX"
			}
, 			{
				"name" : "s2m.wacomtouch.mxo",
				"type" : "iLaX"
			}
 ]
	}

}
